<?xml version="1.0" encoding="iso-8859-1"?>
<!-- Generator: Adobe Illustrator 18.1.1, SVG Export Plug-In . SVG Version: 6.00 Build 0)  -->
<svg version="1.1" id="Capa_1" xmlns="http://www.w3.org/2000/svg" xmlns:xlink="http://www.w3.org/1999/xlink" x="0px" y="0px"
	 viewBox="0 0 45.372 45.372" style="enable-background:new 0 0 45.372 45.372;" xml:space="preserve">
<g>
	<g>
		<path style="fill:#030104;" d="M17.928,1.015c-1.408,0.735-1.497,1.843-1.033,2.608c1.08,1.782,5.916-0.284,7.816,1.651
			c2.598,2.646,2.254,5.486,3.43,8.651c0.145,0.39,0.225,0.811,0.225,1.253c0,0.067-0.016,0.129-0.02,0.194
			c-0.004,0.154-0.021,0.297-0.043,0.436c-0.01,0.056-0.017,0.115-0.029,0.171c-0.051,0.243-0.123,0.454-0.198,0.636
			c-0.179,0.431-0.375,0.678-0.375,0.678c-0.671,0.955-1.778,1.587-3.037,1.587c-2.043,0-3.701-1.657-3.701-3.701
			c0-0.689,0.191-1.331,0.521-1.879c0.562-0.934,0.81-2.015,0.071-2.836l-0.887-0.986C19.929,8.657,19,8.324,18.594,8.735
			s-1.377,1.369-2.163,2.145C12.999,14.267,4.317,22.867,0.892,26.26c-0.785,0.777-0.79,2.043-0.012,2.828L16.429,44.78
			c0.777,0.785,2.044,0.79,2.828,0.013l17.017-16.86c0.785-0.777,0.791-2.044,0.013-2.828l-4.437-4.478
			c-0.777-0.785-0.744-2.046-0.198-3.006C36.091,9.816,27.196-3.828,17.928,1.015z"/>
		<path style="fill:#030104;" d="M35.115,20.381c0.276,0.78,1.951,1.268,2.713,2.067c2.471,2.589,3.09,9.262,4.747,10.919
			c0.87,0.87,1.478,0.643,1.886,0.115c0.675-0.874,0.684-2.747,0.53-3.841c-0.937-6.649-4.594-8.894-6.908-9.651
			C37.033,19.646,34.838,19.6,35.115,20.381z"/>
	</g>
</g>
<g>
</g>
<g>
</g>
<g>
</g>
<g>
</g>
<g>
</g>
<g>
</g>
<g>
</g>
<g>
</g>
<g>
</g>
<g>
</g>
<g>
</g>
<g>
</g>
<g>
</g>
<g>
</g>
<g>
</g>
</svg>
