<?xml version="1.0" encoding="UTF-8"?>
<!DOCTYPE svg PUBLIC "-//W3C//DTD SVG 1.1//EN" "http://www.w3.org/Graphics/SVG/1.1/DTD/svg11.dtd">
<!-- Creator: CorelDRAW -->
<svg xmlns="http://www.w3.org/2000/svg" xml:space="preserve" width="200px" height="200px" style="shape-rendering:geometricPrecision; text-rendering:geometricPrecision; image-rendering:optimizeQuality; fill-rule:evenodd; clip-rule:evenodd"
viewBox="0 0 200 200"
 xmlns:xlink="http://www.w3.org/1999/xlink"
 version="1.1">
 <defs>
  <style type="text/css">
   <![CDATA[
    .fil0 {fill:black}
   ]]>
  </style>
 </defs>
 <g id="Слой_x0020_1">
  <metadata id="CorelCorpID_0Corel-Layer"/>
  <path class="fil0" d="M186.711 79.7676c-0.672053,-1.21891 -1.77757,-2.10002 -3.11577,-2.48742l-56.6721 -16.2497 0 -33.1892c0,-1.23781 -0.687407,-2.36931 -1.77521,-2.94333 -0.390948,-0.206695 -0.809061,-0.300002 -1.23781,-0.34016 -0.00590556,0 -0.0129922,-0.00590556 -0.0224411,-0.00590556l-6.70045 -1.24371c2.94333,-1.20592 6.89651,-1.19056 10.3123,0.222049 1.95946,0.76536 3.88704,2.19687 5.92564,3.71223 2.77797,2.06576 5.65044,4.19649 9.32842,5.25004 11.4284,2.77207 22.3218,-4.11854 30.2754,-9.15598 1.03465,-0.656698 1.34056,-2.02561 0.687407,-3.06262 -0.653155,-1.03465 -2.02561,-1.34411 -3.05908,-0.687407 -7.28392,4.61106 -17.2584,10.9206 -26.7652,8.61503 -0.26575,-0.0779534 -0.522051,-0.203151 -0.784258,-0.300002 11.1969,1.77167 21.4632,-5.31264 28.9998,-10.5438 1.00631,-0.700399 1.25316,-2.08112 0.559847,-3.08743 -0.702761,-1.00985 -2.08112,-1.25907 -3.08743,-0.559847 -7.08076,4.91579 -16.7777,11.6375 -26.3778,9.73118 -2.85002,-0.687407 -5.46618,-2.46616 -7.99967,-4.18704 -2.25356,-1.53072 -4.58153,-3.11932 -7.0973,-3.97562 -5.88784,-2.14962 -12.7973,-1.17757 -16.8037,2.36222 -1.28741,1.13741 -2.25356,2.50041 -2.89018,4.03704l-10.6631 -1.97836c-0.509059,-0.0968512 -1.03702,-0.00590556 -1.49056,0.246852l-22.2781 12.5092c-0.522051,0.290553 -0.862212,0.778353 -1.02166,1.32521 -0.246852,0.472445 -0.390948,0.996858 -0.390948,1.54371l0 9.34732 -53.2599 -15.2706c-0.484256,-0.140552 -0.972055,-0.210238 -1.45985,-0.210238 -2.30317,0 -4.35948,1.54726 -4.99728,3.76302 -0.387405,1.33702 -0.231498,2.74372 0.440555,3.96263 0.672053,1.21891 1.77521,2.10002 3.11577,2.48742l56.1689 16.1033 0 33.6156c0,1.51537 1.02166,2.83703 2.48742,3.22207l25.8876 6.7406 0.00118111 -46.2878 2.40592 0 0 46.4472c0.0625989,-0.0153545 0.125198,-0.0129922 0.190159,-0.0307089 0.119292,-0.0377956 0.218506,-0.109843 0.324806,-0.15945 0.184253,-0.0779534 0.362601,-0.140552 0.5315,-0.256301l21.0722 -14.419c0.905913,-0.618903 1.45041,-1.64647 1.45041,-2.74727l0 -9.77134 53.7689 15.4194c2.76616,0.793707 5.68115,-0.869298 6.45596,-3.55278 0.385042,-1.33938 0.231498,-2.74254 -0.440555,-3.96027zm-85.6908 -42.5826l-18.919 -3.68389 -0.624808 -0.162993 16.2592 -9.13117 9.79378 1.71852c-0.0566934,1.36891 0.0661423,2.80632 0.412208,4.31224 0.0307089,0.144096 0.1063,0.262207 0.162993,0.390948 0.0153545,0.837408 0.0838589,1.69726 0.23386,2.58427l-7.31817 3.97208zm11.5123 -6.24336c-0.0814967,-1.52836 0.121655,-2.87483 0.647249,-4.02169l5.11303 0.896464 -5.76028 3.12522z"/>
  <path class="fil0" d="M69.1517 172.305c-0.0248033,-0.00944889 -0.05315,-0.0129922 -0.0779534,-0.0188978 -0.81851,-0.225592 -1.63112,-0.533862 -2.43073,-0.949614 -0.780715,-0.400397 -1.50592,-0.881109 -2.17797,-1.41615 -0.0437011,-0.0342522 -0.0838589,-0.0685045 -0.125198,-0.1063 -0.596461,-0.484256 -1.14332,-1.03111 -1.65001,-1.60986 -0.174805,-0.203151 -0.330711,-0.4252 -0.497248,-0.634257 -0.309451,-0.390948 -0.596461,-0.803156 -0.865755,-1.23072 -0.305908,-0.484256 -0.569296,-1.0004 -0.822054,-1.52245 -0.165356,-0.349609 -0.347247,-0.693313 -0.487799,-1.05001 -0.109843,-0.281105 -0.193702,-0.569296 -0.284648,-0.8504 -0.197246,-0.594099 -0.375594,-1.19647 -0.493705,-1.81537 -0.0188978,-0.0874023 -0.0401578,-0.172442 -0.0566934,-0.259845 -0.144096,-0.822054 -0.225592,-1.65356 -0.23386,-2.49096 0,-0.0566934 0,-0.115749 0,-0.172442 0,-0.846857 0.0685045,-1.68781 0.209057,-2.52522 0.00944889,-0.0401578 0.0129922,-0.0755911 0.0224411,-0.115749 0.153545,-0.869298 0.383861,-1.73151 0.702761,-2.56537 0.37205,-0.966149 0.840952,-1.83427 1.37481,-2.63742 0.0377956,-0.0566934 0.0755911,-0.102757 0.109843,-0.15945 0.440555,-0.630714 0.949614,-1.17521 1.47521,-1.69371 0.512602,-0.503154 1.06891,-0.918905 1.64056,-1.30985 0.26575,-0.184253 0.509059,-0.396854 0.784258,-0.55276 0.875204,-0.493705 1.80356,-0.890558 2.77207,-1.13741l-4.02759 1.00985c-0.968512,0.243309 -1.89096,0.6378 -2.76616,1.1315 -0.28701,0.162993 -0.537406,0.383861 -0.812605,0.575201 -0.565752,0.387405 -1.10906,0.793707 -1.60986,1.28741 -0.102757,0.102757 -0.237403,0.162993 -0.337798,0.271656 -0.305908,0.322443 -0.590556,0.65906 -0.865755,1.02166 -0.100394,0.134647 -0.193702,0.281105 -0.290553,0.421657 -0.0307089,0.0437011 -0.0625989,0.0874023 -0.0909456,0.131103 -0.0755911,0.109843 -0.155907,0.2126 -0.225592,0.324806 -0.168899,0.26575 -0.324806,0.537406 -0.474807,0.822054 -0.134647,0.256301 -0.262207,0.518508 -0.387405,0.787801 -0.1063,0.231498 -0.206695,0.468901 -0.296459,0.709848 -0.00944889,0.0248033 -0.0153545,0.0472445 -0.0248033,0.0661423 -0.0909456,0.240947 -0.174805,0.480712 -0.252758,0.719297 -0.0755911,0.252758 -0.150001,0.506697 -0.2126,0.755911 -0.0661423,0.256301 -0.125198,0.516146 -0.174805,0.772447 -0.0153545,0.0874023 -0.0248033,0.168899 -0.0401578,0.252758 -0.00590556,0.0401578 -0.0153545,0.0779534 -0.0188978,0.119292 -0.0248033,0.134647 -0.0496067,0.271656 -0.0720478,0.409846 -0.0377956,0.269293 -0.0685045,0.540949 -0.0909456,0.809061 -0.0248033,0.28701 -0.0437011,0.569296 -0.0496067,0.846857 -0.00354333,0.146458 0,0.300002 0,0.453547 0,0.0590556 0,0.115749 0,0.174805 0,0.0874023 0,0.184253 0,0.271656 0.00944889,0.324806 0.0283467,0.653155 0.0625989,0.975598 0.0342522,0.368507 0.0814967,0.737014 0.144096,1.1067 0.00590556,0.0472445 0.0188978,0.0874023 0.0307089,0.134647 0.0153545,0.0838589 0.0377956,0.174805 0.0566934,0.26575 0.0590556,0.315357 0.119292,0.630714 0.199608,0.943708 0.0779534,0.296459 0.197246,0.581107 0.294097,0.87166 0.0933078,0.284648 0.178348,0.571658 0.28701,0.8504 0.0496067,0.115749 0.0755911,0.246852 0.125198,0.366145 0.100394,0.237403 0.252758,0.450004 0.366145,0.677958 0.252758,0.525595 0.516146,1.04056 0.825597,1.53072 0.0814967,0.131103 0.131103,0.281105 0.218506,0.409846 0.190159,0.284648 0.4252,0.537406 0.634257,0.809061 0.172442,0.216143 0.328349,0.440555 0.506697,0.643706 0.0685045,0.0755911 0.119292,0.162993 0.184253,0.237403 0.296459,0.324806 0.60591,0.630714 0.934259,0.928354 0.165356,0.150001 0.34016,0.294097 0.518508,0.437011 0.0496067,0.0377956 0.0933078,0.0755911 0.144096,0.121655 0.0496067,0.0377956 0.0968512,0.0779534 0.146458,0.125198 0.246852,0.187797 0.49961,0.368507 0.759455,0.543311 0.240947,0.15945 0.484256,0.312995 0.737014,0.455909 0.172442,0.100394 0.349609,0.193702 0.525595,0.28701 0.0720478,0.0401578 0.144096,0.0720478 0.218506,0.109843 0.23386,0.119292 0.468901,0.222049 0.709848,0.324806 0.231498,0.0968512 0.468901,0.187797 0.702761,0.26575 0.23386,0.0755911 0.465358,0.155907 0.702761,0.222049 0.0307089,0.00590556 0.0661423,0.0129922 0.0909456,0.0224411 0.0307089,0.00590556 0.0590556,0.0153545 0.0874023,0.0224411 0.18071,0.0496067 0.356696,0.0968512 0.533862,0.137009 0.246852,0.0472445 0.490161,0.0933078 0.734651,0.131103 0.259845,0.0401578 0.516146,0.0661423 0.772447,0.0909456 0.131103,0.00944889 0.259845,0.0188978 0.390948,0.0224411 0.144096,0.00944889 0.290553,0.00944889 0.431106,0.0129922 0.300002,0 0.594099,-0.00944889 0.894102,-0.0342522 0.343703,-0.0283467 0.683864,-0.0661423 1.02166,-0.125198 0.284648,-0.05315 0.565752,-0.109843 0.843314,-0.178348l4.03113 -1.0004c-1.03465,0.256301 -2.10592,0.362601 -3.19373,0.322443 -0.810243,-0.04252 -1.62285,-0.171261 -2.43781,-0.389767z"/>
  <path class="fil0" d="M77.0699 156.405c-0.0129922,-0.0377956 -0.0224411,-0.0779534 -0.0377956,-0.119292 -0.05315,-0.125198 -0.131103,-0.227955 -0.187797,-0.347247 -0.134647,-0.277561 -0.271656,-0.550398 -0.437011,-0.809061 -0.0307089,-0.0496067 -0.05315,-0.109843 -0.0874023,-0.15945 -0.121655,-0.18071 -0.259845,-0.337798 -0.396854,-0.503154 -0.0720478,-0.0909456 -0.137009,-0.187797 -0.216143,-0.275199 -0.0188978,-0.0224411 -0.0342522,-0.0472445 -0.0566934,-0.0685045 -0.146458,-0.162993 -0.303546,-0.315357 -0.465358,-0.459452 -0.102757,-0.0968512 -0.2126,-0.18071 -0.322443,-0.269293 -0.0188978,-0.00944889 -0.0342522,-0.0248033 -0.05315,-0.0401578 -0.00944889,-0.0129922 -0.0188978,-0.0248033 -0.0342522,-0.0342522 -0.121655,-0.0909456 -0.250396,-0.184253 -0.377956,-0.269293 -0.115749,-0.0755911 -0.237403,-0.153545 -0.359058,-0.218506 -0.0874023,-0.0496067 -0.172442,-0.0933078 -0.259845,-0.140552 -0.00944889,-0.00354333 -0.0129922,-0.00944889 -0.0224411,-0.0129922 -0.0248033,-0.00944889 -0.0437011,-0.0248033 -0.0661423,-0.0377956 -0.119292,-0.05315 -0.227955,-0.109843 -0.347247,-0.153545 -0.112206,-0.0472445 -0.227955,-0.0933078 -0.343703,-0.131103 -0.112206,-0.0401578 -0.231498,-0.0755911 -0.349609,-0.109843 -0.0129922,-0.00354333 -0.0248033,-0.00590556 -0.0401578,-0.0129922 -0.00944889,0 -0.0248033,-0.00354333 -0.0342522,-0.00944889 -0.0933078,-0.0248033 -0.184253,-0.0496067 -0.277561,-0.0685045 -0.125198,-0.0248033 -0.246852,-0.0496067 -0.37205,-0.0661423 -0.131103,-0.0188978 -0.259845,-0.0342522 -0.390948,-0.0437011 -0.0661423,-0.00944889 -0.131103,-0.0129922 -0.197246,-0.0153545 -0.0720478,-0.00354333 -0.146458,-0.00354333 -0.222049,-0.00590556 -0.153545,0 -0.305908,0.00590556 -0.453547,0.0188978 -0.172442,0.0129922 -0.343703,0.0377956 -0.512602,0.0625989 -0.140552,0.0248033 -0.275199,0.05315 -0.412208,0.0874023l-4.02759 1.00276c0.509059,-0.12756 1.04646,-0.184253 1.60041,-0.15945 0.427562,0.0188978 0.846857,0.0838589 1.25316,0.197246 0,0 0,0 0.00354333,0 0.400397,0.109843 0.787801,0.262207 1.16221,0.450004 0.00590556,0.00354333 0.0129922,0.00590556 0.0188978,0.0129922 0.362601,0.190159 0.706305,0.409846 1.03111,0.65906 0.0188978,0.0129922 0.0342522,0.0342522 0.0496067,0.0472445 0.303546,0.237403 0.58465,0.512602 0.846857,0.803156 0.0755911,0.0814967 0.140552,0.178348 0.2126,0.26575 0.172442,0.2126 0.334255,0.434649 0.487799,0.672053 0.15945,0.252758 0.296459,0.522051 0.431106,0.79725 0.0755911,0.15945 0.165356,0.309451 0.231498,0.474807 0.0496067,0.115749 0.0814967,0.243309 0.121655,0.362601 0.1063,0.309451 0.199608,0.615359 0.269293,0.940165 0.0129922,0.0496067 0.0224411,0.1063 0.0342522,0.155907 0.0779534,0.434649 0.131103,0.877566 0.134647,1.33111 0.00944889,0.793707 -0.102757,1.54962 -0.3189,2.25002l0 0c-0.209057,0.69095 -0.527957,1.3193 -0.922448,1.87561 -0.00944889,0.0153545 -0.0188978,0.0307089 -0.0307089,0.0472445 -0.315357,0.440555 -0.715754,0.784258 -1.12796,1.11851 -0.146458,0.121655 -0.28701,0.259845 -0.450004,0.362601 -0.512602,0.330711 -1.063,0.609454 -1.66537,0.759455l4.02759 -1.00276c0.60591,-0.150001 1.15985,-0.427562 1.67482,-0.76536 0.155907,-0.102757 0.290553,-0.23386 0.437011,-0.353152 0.206695,-0.168899 0.437011,-0.305908 0.624808,-0.503154 0.150001,-0.15945 0.290553,-0.324806 0.427562,-0.506697 0.0283467,-0.0377956 0.0566934,-0.0755911 0.0814967,-0.119292 0.0129922,-0.0129922 0.0188978,-0.0283467 0.0307089,-0.0437011 0.0625989,-0.0909456 0.131103,-0.18071 0.190159,-0.275199 0.0814967,-0.131103 0.162993,-0.26575 0.237403,-0.406302 0.0661423,-0.131103 0.131103,-0.256301 0.190159,-0.390948 0.0566934,-0.125198 0.109843,-0.250396 0.155907,-0.381499 0.0472445,-0.121655 0.0909456,-0.246852 0.131103,-0.37205 0.00354333,-0.0129922 0.00590556,-0.0283467 0.00944889,-0.0401578 0.00354333,-0.00590556 0.00590556,-0.0129922 0.00944889,-0.0224411 0.0307089,-0.102757 0.0625989,-0.206695 0.0874023,-0.315357 0.0342522,-0.12756 0.0625989,-0.252758 0.0874023,-0.383861 0.0248033,-0.12756 0.0472445,-0.259845 0.0661423,-0.390948 0.0153545,-0.131103 0.0307089,-0.269293 0.0437011,-0.409846 0.0129922,-0.140552 0.0224411,-0.284648 0.0248033,-0.427562 0.00354333,-0.1063 0.00590556,-0.209057 0.00354333,-0.324806 0,-0.0472445 -0.00354333,-0.0909456 -0.00354333,-0.137009 -0.00354333,-0.168899 -0.0153545,-0.328349 -0.0283467,-0.493705 -0.0224411,-0.187797 -0.0401578,-0.37205 -0.0720478,-0.55276 -0.00590556,-0.0472445 -0.0224411,-0.0909456 -0.0283467,-0.144096 -0.00944889,-0.0496067 -0.0224411,-0.0968512 -0.0307089,-0.150001 -0.0248033,-0.12756 -0.0496067,-0.259845 -0.0814967,-0.383861 -0.0496067,-0.193702 -0.12756,-0.377956 -0.190159,-0.569296 -0.0366145,-0.105119 -0.0673234,-0.229136 -0.118111,-0.348428z"/>
  <path class="fil0" d="M90.3019 169.393l-5.29374 -5.55949 0.0566934 -0.527957c0.162993,-1.54371 0.168899,-2.97168 0.0153545,-4.37248l-0.0661423 -0.571658 5.27484 -4.96539c-0.415751,-1.45985 -0.928354,-2.86538 -1.52245,-4.18704l-7.16935 -0.0248033 -0.356696 -0.49961c-0.837408,-1.20001 -1.77757,-2.29962 -2.81223,-3.29058l-0.383861 -0.356696 0.349609 -7.81305c-0.594099,-0.375594 -1.20946,-0.725203 -1.84017,-1.05355 -0.543311,-0.269293 -1.11615,-0.550398 -1.71261,-0.79725l-2.57482 3.01538c-0.162993,-0.0224411 -0.328349,-0.0472445 -0.490161,-0.0590556 -0.206695,-0.0188978 -0.406302,-0.0283467 -0.60591,-0.0377956 -0.246852,-0.0129922 -0.490161,-0.0153545 -0.727565,-0.0153545 -0.366145,-0.00354333 -0.725203,0.00354333 -1.08426,0.0188978l-4.85909 -6.19375 -4.02759 1.00276 4.85909 6.19966c0.603548,-0.0342522 1.20592,-0.0377956 1.81301,-0.00354333 0.780715,0.0307089 1.57206,0.119292 2.37522,0.271656l2.21222 -0.559847 -1.60986 1.88742 -0.65906 -0.125198c-0.746463,-0.140552 -1.47757,-0.222049 -2.21222,-0.252758 -0.577564,-0.0283467 -1.14095,-0.0224411 -1.70671,0l-0.594099 0.0283467 -4.75279 -6.05674c-1.20001,0.356696 -2.35041,0.816148 -3.43703,1.36537l0.347247 7.82841 -0.450004 0.366145c-0.375594,0.303546 -0.6378,0.69095 -0.975598,1.0193l-6.09336 -0.719297 -4.02759 1.00631 7.2225 0.856306 2.38112 -0.596461c-0.4252,0.455909 -0.915362,0.846857 -1.28741,1.35355l-0.400397 0.537406 -7.08431 -0.837408c-0.284648,0.590556 -0.546855,1.213 -0.799613,1.84726 -0.23386,0.687407 -0.472445,1.37245 -0.681501,2.06931l5.29374 5.59729 -0.0661423 0.527957c-0.165356,1.49647 -0.168899,2.95987 -0.0153545,4.36303l0.0661423 0.575201 -5.27484 4.9276c0.412208,1.45277 0.92481,2.86538 1.53072,4.22247l7.07486 0.0377956 0.34016 0.480712c0.890558,1.24962 1.81537,2.30907 2.83467,3.24097l0.400397 0.366145 -0.390948 7.82486c0.590556,0.37205 1.20592,0.721659 1.83427,1.05001 0.571658,0.315357 1.17166,0.581107 1.71616,0.799613l4.71264 -5.46855 0.6378 0.0968512c0.759455,0.121655 1.51537,0.206695 2.26301,0.237403l0.640163 0.0153545c0.0129922,0 0.0224411,0 0.0342522,0l-3.27758 0.822054 -4.82248 5.59965 4.02523 -1.01221 4.68429 -5.43075c0.137009,-0.00590556 0.275199,-0.00590556 0.412208,-0.0129922l0.618903 -0.0496067 4.7339 6.08154c1.10906,-0.3189 2.26892,-0.778353 3.45593,-1.37481l-0.383861 -7.82486 0.455909 -0.368507c1.06536,-0.865755 1.98072,-1.80946 2.81223,-2.88427l0.402759 -0.525595 3.40987 0.375594 -3.07798 0.772447c-0.884653,1.16221 -1.88151,2.18742 -2.99057,3.08743l0.39331 7.98077c-1.58151,0.846857 -3.23743,1.54017 -4.93114,1.96891l4.02759 -1.00985c1.69371,-0.421657 3.34963,-1.11261 4.93114,-1.96537l-0.390948 -7.97841c0.622446,-0.512602 1.20946,-1.05355 1.75986,-1.63702 0.337798,-0.356696 0.649611,-0.7441 0.962606,-1.13741l3.05908 0.34016c0.281105,-0.596461 0.550398,-1.20946 0.803156,-1.82246 0.25512,-0.676777 0.485437,-1.37363 0.686226,-2.08584zm-10.1564 -3.02837c-2.00317,5.20043 -6.68391,8.55952 -11.9162,8.55952l-0.556304 -0.0129922c-1.86852,-0.0814967 -3.69688,-0.577564 -5.42839,-1.47521 -6.841,-3.52207 -10.1221,-12.4099 -7.30636,-19.7966 2.00671,-5.2028 6.6969,-8.56306 11.9434,-8.56306l0.543311 0.00944889c1.87206,0.0814967 3.70279,0.58465 5.44729,1.47757 6.82919,3.49491 10.1883,12.3769 7.27329,19.8013z"/>
  <path class="fil0" d="M78.538 132.978c-0.0566934,-0.0188978 -0.109843,-0.0437011 -0.162993,-0.0661423l-4.02759 1.00631c0.900007,0.328349 1.75986,0.737014 2.58782,1.14686 0.862212,0.453547 1.69371,0.937803 2.48388,1.4693l-0.353152 7.94652c1.09961,1.04056 2.08112,2.19687 2.95632,3.47247l7.21541 0.0283467c0.328349,0.683864 0.609454,1.39371 0.890558,2.10356 0.465358,1.18111 0.877566,2.38112 1.19647,3.60003l-5.36225 5.04689c0.0755911,0.715754 0.109843,1.42796 0.109843,2.14372 0,0.0933078 0,0.193702 0,0.290553 -0.00944889,0.721659 -0.0496067,1.45041 -0.12756,2.18151l5.3717 5.64689c-0.250396,0.975598 -0.537406,1.90986 -0.896464,2.84648 -0.359058,0.887015 -0.762998,1.77521 -1.20001,2.62797l4.02759 -1.00631c0.23386,-0.455909 0.455909,-0.918905 0.668509,-1.39371 0.184253,-0.409846 0.359058,-0.822054 0.527957,-1.23426 0.0224411,-0.0496067 0.0401578,-0.0933078 0.0590556,-0.144096 0.153545,-0.406302 0.290553,-0.822054 0.4252,-1.23781 0.146458,-0.462996 0.284648,-0.940165 0.406302,-1.42206 0.00354333,-0.0153545 0.00590556,-0.0342522 0.0129922,-0.0496067l-5.37524 -5.64335c0.0129922,-0.17008 0.0259845,-0.342522 0.0484256,-0.511421 0.0377956,-0.431106 0.0590556,-0.856306 0.0720478,-1.28741 0.00354333,-0.1063 0,-0.216143 0,-0.324806 0,-0.134647 0,-0.271656 0,-0.406302 0,-0.172442 0.00354333,-0.334255 0,-0.509059 -0.00944889,-0.419295 -0.0377956,-0.840952 -0.0720478,-1.25316 -0.0129922,-0.1063 -0.0224411,-0.2126 -0.0342522,-0.322443l5.35988 -5.04689c-0.3189,-1.23426 -0.7441,-2.44018 -1.213,-3.63428 -0.05315,-0.144096 -0.0874023,-0.294097 -0.146458,-0.434649 -0.225592,-0.55276 -0.468901,-1.09961 -0.727565,-1.63112l-7.21541 -0.0283467c-0.590556,-0.862212 -1.23426,-1.67836 -1.92757,-2.43073 -0.334255,-0.356696 -0.672053,-0.706305 -1.02757,-1.03702l0.356696 -7.94416c-0.0188978,-0.0129922 -0.0342522,-0.0283467 -0.0496067,-0.0377956m26.3388 -20.8974l0 -16.3631c-1.68781,1.68781 -4.46578,3.60948 -8.33392,3.64964 -3.86578,0.0437011 -5.92564,-0.780715 -8.61857,-2.50986l0 15.2257c0,4.78586 5.24532,6.841 8.41306,6.84927 3.42404,0.00826778 8.46148,-2.6327 8.53944,-6.85163z"/>
  <polygon class="fil0" points="112.343,145.486 110.736,145.495 106.705,146.502 108.314,146.496 109.918,146.646 111.399,151.13 112.018,153.052 116.042,152.042 115.426,150.124 113.945,145.636 "/>
  <path class="fil0" d="M122.961 158.665l-1.7256 -0.737014 0.762998 -1.77757 1.74332 -4.13153c-0.453547,-0.622446 -0.943708,-1.23072 -1.46222,-1.79647 -0.259845,-0.284648 -0.5315,-0.559847 -0.809061,-0.822054l-4.03113 1.00985c0.833865,0.778353 1.59686,1.68072 2.27482,2.61616l-1.74686 4.13389 -0.762998 1.77167 1.73151 0.740557 3.97562 1.74096 0.134647 1.78112 -0.0933078 1.76576 -3.94019 1.39017 -1.70907 0.587012 0.803156 1.84726 1.84372 4.29334c-0.150001,0.197246 -0.315357,0.377956 -0.472445,0.571658 -0.197246,0.243309 -0.396854,0.497248 -0.60591,0.731108 -0.359058,0.390948 -0.734651,0.753549 -1.1315,1.07245l4.03468 -1.00631c0.368507,-0.303546 0.721659,-0.640163 1.063,-1.0004 0.39331,-0.421657 0.774809,-0.881109 1.1256,-1.35355 0.00944889,-0.00944889 0.0153545,-0.0129922 0.0248033,-0.0224411l-1.84726 -4.29334 -0.806699 -1.84962 1.71261 -0.58465 3.94019 -1.39371 0.0909456 -1.77521 -0.134647 -1.76931 -3.98271 -1.73978z"/>
  <path class="fil0" d="M62.4737 159.711c0.0342522,3.18428 2.38112,5.86304 5.22169,5.98469l0.209057 0.00944889c1.18465,0 2.31262,-0.474807 3.16302,-1.34411 1.01576,-1.0252 1.56615,-2.47207 1.54726,-4.07247 -0.0377956,-3.19727 -2.36222,-5.90674 -5.18744,-6.02485 -0.00590556,0 -0.0129922,-0.00354333 -0.0153545,-0.00354333 -1.38426,0 -2.51577,0.484256 -3.37798,1.35946 -1.01103,1.02875 -1.58623,2.51695 -1.56025,4.09137z"/>
  <path class="fil0" d="M118.89 172.974l-2.86892 -6.6532 6.0969 -2.12482 0.0437011 -0.996858 -0.0720478 -0.943708 -6.13115 -2.65041 2.70593 -6.3532c-0.387405,-0.506697 -0.784258,-0.975598 -1.19056,-1.39017l-5.87839 2.87246 -2.26892 -6.94376 -0.852763 -0.0814967 -0.649611 0.00354333 -0.912999 2.94097 -3.60948 -2.01852 -4.0335 1.00749 3.83743 2.14962 1.65356 0.937803 1.63348 -0.408665 -0.681501 2.19332 -6.02249 -3.38743c-0.368507,0.34016 -0.727565,0.725203 -1.063,1.1315l2.91262 6.65675 -6.16895 2.12482 -0.0283467 0.968512 0.0566934 0.972055 6.1843 2.66223 -2.70002 6.35674c0.343703,0.440555 0.740557,0.894102 1.18465,1.34411l5.8843 -2.83467 0.390948 1.20946 -1.35355 0.334255 -1.62757 0.793707 -3.79019 1.81301 4.03113 -1.00985 2.92798 -1.39371 1.69371 5.20043 0.793707 0.0720478 0.71221 -0.00354333 2.10356 -6.79375 2.14962 1.213 -1.73387 0.434649 -0.577564 1.87206 -1.36891 4.35594 4.03468 -1.00276 1.36891 -4.36303 0.0838589 -0.277561 2.05986 1.16576c0.343703,-0.342522 0.696856,-0.720478 1.04056,-1.15513zm-7.12565 -6.95557c-0.755911,0.762998 -1.75631,1.18702 -2.80986,1.18702 -2.53703,-0.1063 -4.39964,-2.16852 -4.44098,-4.70673 -0.00944889,-1.26615 0.444098,-2.42837 1.27206,-3.27168 0.759455,-0.76536 1.75986,-1.18465 2.81223,-1.18465l0.193702 0.00354333c0.603548,0.0283467 1.17521,0.190159 1.69371,0.455909l-2.82168 0.702761c-0.465358,0.119292 -0.862212,0.390948 -1.21891,0.721659 -0.0472445,0.0401578 -0.112206,0.0437011 -0.153545,0.0874023 -0.0661423,0.0779534 -0.144096,0.165356 -0.209057,0.252758 -0.0153545,0.0224411 -0.0307089,0.0472445 -0.0437011,0.0661423 -0.00590556,0 -0.00590556,0.00354333 -0.00590556,0.00354333 -0.0342522,0.0496067 -0.0661423,0.0968512 -0.102757,0.146458 -0.0401578,0.0685045 -0.0814967,0.134647 -0.119292,0.203151 -0.0342522,0.0661423 -0.0661423,0.131103 -0.0909456,0.197246 -0.0283467,0.0590556 -0.0590556,0.121655 -0.0814967,0.190159 -0.0248033,0.0590556 -0.0472445,0.121655 -0.0661423,0.187797 0,0.00590556 -0.00354333,0.0129922 -0.00354333,0.0224411l-0.00944889 0.00354333c-0.0129922,0.0590556 -0.0283467,0.109843 -0.0437011,0.165356 -0.0188978,0.0661423 -0.0307089,0.12756 -0.0472445,0.190159 -0.00944889,0.0661423 -0.0224411,0.131103 -0.0307089,0.193702 -0.0129922,0.0661423 -0.0224411,0.134647 -0.0283467,0.199608 -0.00354333,0.0720478 -0.00590556,0.140552 -0.00944889,0.216143 0,0.0566934 0,0.1063 0,0.15945 0,0.0224411 0,0.0496067 0,0.0720478 0.00354333,0.0779534 0.00590556,0.162993 0.0153545,0.243309 0.00944889,0.0909456 0.0224411,0.184253 0.0401578,0.275199 0.0153545,0.119292 0.0401578,0.222049 0.0661423,0.334255 0.0377956,0.131103 0.0838589,0.259845 0.131103,0.377956 0.00354333,0.0248033 0.0129922,0.0437011 0.0188978,0.0661423 0.00590556,0.0248033 0.0188978,0.05315 0.0307089,0.0720478 0.0968512,0.23386 0.2126,0.453547 0.347247,0.653155 0.0874023,0.125198 0.184253,0.243309 0.281105,0.356696 0.00354333,0.00354333 0.00590556,0.00590556 0.0153545,0.0129922 0.0129922,0.0153545 0.0224411,0.0377956 0.0377956,0.0496067 0.0720478,0.0814967 0.150001,0.162993 0.23386,0.227955 0.0625989,0.0625989 0.131103,0.119292 0.197246,0.172442 0.0625989,0.0472445 0.125198,0.0909456 0.193702,0.137009 0.0566934,0.0377956 0.115749,0.0685045 0.178348,0.1063 0.0401578,0.0307089 0.0909456,0.0566934 0.137009,0.0779534 0.00590556,0 0.00590556,0.00354333 0.00944889,0.00354333 0.00944889,0.00354333 0.0188978,0.00590556 0.0283467,0.0129922 0.0590556,0.0248033 0.112206,0.05315 0.174805,0.0779534 0.0566934,0.0224411 0.112206,0.0472445 0.172442,0.0661423 0.0590556,0.0224411 0.119292,0.0437011 0.174805,0.0625989 0.0625989,0.0129922 0.121655,0.0342522 0.184253,0.0472445 0.0625989,0.00590556 0.125198,0.0224411 0.184253,0.0283467 0.0661423,0.00944889 0.134647,0.0188978 0.197246,0.0248033 0.0377956,0.00354333 0.0661423,0.00354333 0.0968512,0.00354333 0.0437011,0.00354333 0.0755911,0.00354333 0.115749,0.00354333 0.0779534,0 0.155907,-0.00354333 0.227955,-0.00590556 0.0874023,-0.00590556 0.172442,-0.0188978 0.259845,-0.0307089 0.0661423,-0.00944889 0.137009,-0.0283467 0.206695,-0.0437011l2.96223 -0.740557c-0.175986,0.289372 -0.312995,0.615359 -0.553941,0.862212zm0.694494 -1.07835c-0.803156,-0.0685045 -1.52836,-0.453547 -2.07167,-1.05355 -0.0153545,-0.0153545 -0.0283467,-0.0342522 -0.0437011,-0.05315 -0.26575,-0.312995 -0.490161,-0.668509 -0.647249,-1.06536 -0.00590556,-0.0129922 -0.00944889,-0.0307089 -0.0188978,-0.05315 -0.153545,-0.409846 -0.246852,-0.8504 -0.252758,-1.30985 -0.00590556,-0.396854 0.0590556,-0.774809 0.155907,-1.11615 0,-0.00354333 0.00590556,-0.00944889 0.00590556,-0.0129922 0.100394,-0.343703 0.259845,-0.653155 0.455909,-0.928354 0.00590556,-0.00590556 0.0129922,-0.0224411 0.0153545,-0.0283467 0.112206,-0.155907 0.262207,-0.26575 0.396854,-0.39331 0.0968512,-0.0874023 0.225592,-0.121655 0.328349,-0.197246 1.30277,0.816148 2.21577,2.27836 2.24411,4.01932 0.0129922,0.804337 -0.224411,1.52009 -0.568115,2.19214z"/>
  <g id="_229013392">
  </g>
  <g id="_229014568">
  </g>
  <g id="_229015408">
  </g>
  <g id="_229015480">
  </g>
  <g id="_229016104">
  </g>
  <g id="_229016728">
  </g>
  <g id="_229017400">
  </g>
  <g id="_229017352">
  </g>
  <g id="_229017880">
  </g>
  <g id="_229018528">
  </g>
  <g id="_229018552">
  </g>
  <g id="_229019608">
  </g>
  <g id="_229019464">
  </g>
  <g id="_229020568">
  </g>
  <g id="_229020616">
  </g>
 </g>
</svg>
